<svg fill="none" height="51" viewBox="0 0 241 51" width="241" xmlns="http://www.w3.org/2000/svg"><g fill="#fff"><path d="m75.6848 3.76591c1.6457 1.2847 2.8114 3.10113 3.305 5.14972h-3.4372c-.4395-1.18375-1.225-2.20243-2.2508-2.91918-1.1189-.74566-2.437-1.12222-3.7743-1.07832-1.123-.0194-2.2277.2896-3.1828.8902-.9568.62096-1.7219 1.50348-2.2077 2.54631-.5609 1.20759-.837 2.53146-.8065 3.86646-.0288 1.3262.2473 2.641.8065 3.8396.4849 1.0425 1.2504 1.9242 2.2077 2.543.9562.5969 2.0609.9023 3.1828.8801 1.3373.0439 2.6554-.3327 3.7743-1.0783 1.0202-.7097 1.8049-1.717 2.2508-2.889h3.4372c-.4893 2.0496-1.656 3.8663-3.305 5.1464-1.6217 1.2519-3.6587 1.8789-6.1111 1.8812-1.7548.0345-3.4857-.4173-5.0071-1.3068-1.4406-.8647-2.6062-2.1323-3.3579-3.6515-.8179-1.6676-1.2261-3.5118-1.1898-5.3748-.0368-1.863.3714-3.70729 1.1898-5.37474.7601-1.51474 1.9281-2.77875 3.3678-3.64478 1.5182-.89935 3.2503-1.35721 5.0072-1.32354 2.4523 0 4.486.63266 6.1011 1.89797z"/><path d="m92.8391 7.30344c1.1937.63841 2.1772 1.61822 2.8291 2.81836.705 1.3261 1.056 2.8166 1.018 4.3234.0385 1.5132-.3124 3.0104-1.018 4.3435-.6519 1.2002-1.6354 2.18-2.8291 2.8184-1.2623.6428-2.6548.9776-4.0668.9776s-2.8045-.3348-4.0669-.9776c-1.1923-.6465-2.1749-1.63-2.8291-2.8319-.7092-1.3273-1.0647-2.82-1.0311-4.33-.0353-1.5049.3204-2.9926 1.0311-4.3133.6576-1.19579 1.6397-2.17415 2.8291-2.81838 1.2624-.64286 2.6549-.97758 4.0669-.97758s2.8045.33472 4.0668.97758zm-6.3655 2.43881c-.7201.40715-1.3055 1.02195-1.6822 1.76695-.4525.9085-.6719 1.9183-.6379 2.936-.0349 1.0166.1846 2.0256.6379 2.9326.3799.7401.9647 1.3508 1.6822 1.7569.707.3772 1.4936.5743 2.2921.5743s1.585-.1971 2.292-.5743c.7176-.4061 1.3024-1.0168 1.6823-1.7569.4533-.907.6727-1.916.6379-2.9326.0311-1.012-.1882-2.0158-.6379-2.9192-.3741-.7512-.9597-1.3721-1.6823-1.78375-.707-.37724-1.4935-.57433-2.292-.57433s-1.5851.19709-2.2921.57433z"/><path d="m99.3453.547633c.2023-.18713.439-.331824.6967-.425785.257-.0939615.531-.1353427.804-.12177111.555-.02513129 1.098.17135911 1.513.54755611.189.17418.338.387733.438.626037.1.2383.148.49571.141.75461.007.25352-.041.50557-.141.73794s-.249.43927-.438.60576c-.423.35838-.963.5429-1.513.51732-.547.02784-1.0835-.15716-1.5007-.51732-.1848-.16864-.3311-.37627-.4287-.60836s-.1442-.48305-.1365-.73534c-.0073-.25768.0393-.51401.1367-.75202.0974-.238008.2435-.452277.4285-.628627zm3.1097 5.979447v15.84552h-3.2254v-15.84552z"/><path d="m118.87 8.06253c1.09 1.18917 1.641 2.88557 1.652 5.08927v9.2211h-3.225v-8.8852c0-1.4198-.359-2.5172-1.075-3.2921-.716-.77482-1.696-1.16337-2.941-1.16561-.572-.02631-1.143.07153-1.674.28701-.532.21547-1.013.54364-1.41.9626-.776.8365-1.16 2.0559-1.16 3.6683v8.425h-3.225v-15.84555h3.225v3.48015c.371-1.13389 1.109-2.10701 2.092-2.76127 1.011-.66051 2.193-1.00076 3.395-.97754 1.802 0 3.251.59795 4.346 1.79384z"/><path d="m132.985 19.8191h6.905v2.553h-10.13v-20.30325h3.225z"/><path d="m141.956.548294c.404-.374065.937-.5708343 1.484-.54755583.555-.02549117 1.098.17104583 1.513.54755583.189.173872.339.387288.44.625606.1.23831.149.49589.142.75504.007.25376-.042.50589-.142.73824-.101.23235-.251.43914-.44.60546-.422.36138-.962.54841-1.513.52404-.546.02731-1.081-.15767-1.498-.51732-.185-.16804-.333-.37547-.431-.60765s-.145-.48344-.137-.73605c-.007-.26015.041-.51875.142-.75817.1-.239411.25-.454019.44-.629196zm3.11 5.979446v15.84556h-3.226v-15.84556z"/><path d="m158.277 7.27633c.946.61569 1.685 1.50815 2.122 2.55974v-3.30885h3.226v23.37028h-3.226v-11.0049c-.447 1.0927-1.194 2.0315-2.152 2.7042-.997.6677-2.171 1.0089-3.364.9775-1.304.015-2.586-.3336-3.709-1.0078-1.116-.6752-2.024-1.6567-2.617-2.8318-.653-1.3139-.978-2.771-.945-4.2427-.031-1.4758.294-2.9368.945-4.2562.594-1.17848 1.5-2.1642 2.617-2.84526 1.121-.67825 2.405-1.02712 3.709-1.00777 1.192-.0426 2.372.26783 3.394.89356zm-6.028 3.35927c-.882.9294-1.322 2.2182-1.322 3.8665 0 1.6482.44 2.9236 1.322 3.8261.447.4497.981.8009 1.568 1.0321.586.2312 1.214.3372 1.842.3116.832.0097 1.652-.2035 2.377-.6181.728-.4242 1.326-1.0466 1.725-1.7972.456-.8655.684-1.8366.661-2.8184.021-.9718-.207-1.9325-.661-2.7881-.399-.7506-.997-1.373-1.725-1.79723-.725-.41457-1.545-.62775-2.377-.6181-.632-.0234-1.263.08828-1.85.32783-.588.23955-1.119.6016-1.56 1.0629z"/><path d="m181.306 6.52754v15.84556h-3.255v-3.45c-.36 1.1206-1.09 2.0805-2.066 2.7177-1.023.6534-2.212.9874-3.42.9607-1.812 0-3.265-.5935-4.36-1.7804s-1.646-2.8845-1.652-5.0926v-9.20096h3.225v8.85836c0 1.4377.358 2.544 1.075 3.3189.716.7749 1.696 1.1634 2.941 1.1656.573.0257 1.145-.074 1.677-.2925s1.012-.5506 1.407-.9739c.773-.8443 1.16-2.076 1.16-3.6952v-8.39806z"/><path d="m184.727.54757c.203-.186977.439-.331572.697-.425525.257-.0939517.53-.135419.804-.12203171.555-.02513129 1.098.17135871 1.513.54755671.189.174179.338.387732.438.62603.1.2383.148.49572.141.75462.007.25352-.041.50556-.141.73793s-.249.43927-.438.60576c-.423.35838-.963.54291-1.513.51733-.547.02749-1.084-.15746-1.501-.51733-.185-.16864-.331-.37626-.429-.60835-.097-.23209-.144-.48305-.136-.73534-.007-.25768.039-.51401.137-.75202.097-.238012.243-.452281.428-.62863zm3.113 5.97945v15.84558h-3.225v-15.84558z"/><path d="m201.054 7.39037c.98.68419 1.714 1.67332 2.092 2.81843v-9.117h3.253v21.2808h-3.253v-3.6952c-.377 1.1464-1.112 2.1367-2.092 2.8218-1.072.7327-2.344 1.1051-3.635 1.0649-1.278.0221-2.536-.3163-3.636-.9776-1.085-.6735-1.956-1.6525-2.505-2.8184-.623-1.3513-.929-2.8314-.892-4.3233-.034-1.4899.277-2.967.905-4.3133.55-1.16589 1.42-2.14489 2.506-2.81839 1.099-.66131 2.358-.9997 3.635-.97754 1.286-.04042 2.552.32834 3.622 1.0548zm-6.058 3.20473c-.863.9316-1.296 2.2148-1.299 3.8497-.002 1.6348.431 2.9113 1.299 3.8295.443.4672.978.8332 1.571 1.0736s1.229.3496 1.866.3205c.855.0138 1.697-.2092 2.436-.645.721-.4381 1.308-1.0707 1.696-1.8274.426-.8511.636-1.7967.611-2.7512.019-.9533-.196-1.8964-.624-2.7445-.384-.7633-.972-1.4012-1.696-1.84088-.738-.43839-1.581-.66263-2.436-.64834-.634-.02786-1.267.08106-1.857.31959-.591.23853-1.124.60133-1.567 1.06443z"/><path d="m209.823.54757c.203-.186977.439-.331572.697-.425525.257-.0939517.53-.135419.804-.12203171.557-.02691009 1.103.16969771 1.52.54755671.189.174179.338.387732.438.62603.1.2383.147.49572.14.75462.008.25352-.04.50556-.14.73793s-.25.43927-.438.60576c-.423.35838-.963.54291-1.514.51733-.546.02749-1.083-.15746-1.5-.51733-.185-.16864-.331-.37626-.429-.60835s-.144-.48305-.136-.73534c-.009-.25718.037-.5132.133-.75118.097-.237986.241-.452523.425-.62947zm3.113 5.97945v15.84558h-3.225v-15.84558z"/><path d="m224.111 19.5242v2.8486h-1.983c-1.659 0-2.918-.4075-3.778-1.2227-.859-.8152-1.288-2.1712-1.285-4.0681v-7.76316h-2.238v-2.79153h2.238v-3.9404h3.252v3.9404h3.764v2.79153h-3.761v7.81356c0 .9003.165 1.5251.496 1.8678.33.3426.909.5173 1.738.5173z"/><path d="m228.41 6.52686 4.67 11.64644 4.327-11.64644h3.592l-9.419 23.37024h-3.593l3.365-7.8976-6.564-15.47264z"/><path d="m73.0898 48.1371c-.5023.8846-1.2493 1.5995-2.1483 2.0559-1.0987.5485-2.3129.8149-3.5364.7759-1.2491.0199-2.4882-.2297-3.6355-.7323-1.0208-.4439-1.9087-1.1529-2.5747-2.0558-.6439-.8889-1.0256-1.9457-1.1005-3.0469h3.4504c.0876.8701.4849 1.6776 1.1171 2.2709.7147.6556 1.6561.9962 2.6176.9473.413.0262.8269-.0314 1.2179-.1692.3909-.1378.751-.3532 1.0593-.6337.2679-.2701.4779-.5938.6167-.9505s.2034-.7388.1897-1.1221c.0256-.653-.1862-1.2927-.5949-1.7972-.4043-.4738-.9065-.8512-1.4707-1.1052-.585-.2687-1.3848-.5744-2.4061-.9204-1.0428-.3225-2.0594-.7269-3.0406-1.2094-.7903-.4136-1.4706-1.0152-1.9831-1.7535-.5853-.8924-.8737-1.952-.8229-3.0233-.0207-1.0171.2553-2.0176.7932-2.8755.5559-.8472 1.3426-1.5114 2.2639-1.9114 1.0714-.4675 2.2287-.6965 3.3943-.6719 2.0381 0 3.6554.4983 4.8518 1.4949.5785.4786 1.0559 1.071 1.4034 1.7418.3476.6708.5583 1.4061.6193 2.1616h-3.4769c-.1274-.7582-.5009-1.4512-1.0609-1.9685-.652-.5768-1.5003-.871-2.3631-.8196-.7861-.0402-1.5598.2104-2.178.7054-.2778.251-.4959.5628-.6379.912-.142.3491-.2042.7264-.1818 1.1035-.0229.621.1781 1.229.5652 1.7099.3891.4617.8777.8261 1.4277 1.0649.5751.2575 1.3628.5599 2.3631.907 1.063.3224 2.0986.7313 3.0969 1.2227.8133.4218 1.5132 1.0387 2.0392 1.7972.593.9194.8846 2.0059.8328 3.104.01.9775-.234 1.9404-.7072 2.7915z"/><path d="m87.6636 35.7014c1.1924.6402 2.1755 1.6195 2.8291 2.8184.6692 1.3408 1.018 2.8232 1.018 4.3267s-.3488 2.9858-1.018 4.3267c-.6519 1.2002-1.6354 2.18-2.8291 2.8184-1.2579.6636-2.6581.9994-4.0751.9775-1.412.024-2.8073-.3121-4.0586-.9775-1.193-.6455-2.1758-1.6293-2.8291-2.8318-.6793-1.3354-1.0338-2.8168-1.0338-4.32 0-1.5033.3545-2.9847 1.0338-4.32.6567-1.1965 1.639-2.1751 2.8291-2.8184 1.2513-.6654 2.6466-1.0015 4.0586-.9775 1.417-.022 2.8172.3139 4.0751.9775zm-6.3589 2.4422c-.7213.4083-1.3077 1.0242-1.6856 1.7703-.4179.9169-.6344 1.9153-.6344 2.9259 0 1.0105.2165 2.0089.6344 2.9259.3802.7401.9665 1.35 1.6856 1.7535.7064.3772 1.4924.5743 2.2904.5743s1.584-.1971 2.2904-.5743c.7184-.4045 1.3044-1.0141 1.6856-1.7535.4179-.917.6344-1.9154.6344-2.9259 0-1.0106-.2165-2.009-.6344-2.9259-.3789-.7454-.9651-1.3611-1.6856-1.7703-.7064-.3773-1.4924-.5744-2.2904-.5744s-1.584.1971-2.2904.5744z"/><path d="m97.2814 29.4912v21.2774h-3.2257v-21.2774z"/><path d="m114.993 34.936v15.8422h-3.256v-3.46c-.357 1.1218-1.088 2.0824-2.065 2.7176-1.023.6546-2.212.9899-3.421.9641-1.811 0-3.264-.5946-4.359-1.7837-1.095-1.1892-1.646-2.8856-1.653-5.0893v-9.1909h3.226v8.855c0 1.4378.358 2.5452 1.074 3.3223.381.3949.841.703 1.348.9039.507.201 1.05.2902 1.594.2617.573.0251 1.145-.075 1.676-.2935.532-.2184 1.012-.5502 1.407-.9729.774-.842 1.16-2.0738 1.16-3.6952v-8.3813z"/><path d="m126.137 47.9241v2.8453h-1.983c-1.659 0-2.918-.4065-3.778-1.2194-.859-.8129-1.288-2.1701-1.285-4.0714v-7.7632h-2.235v-2.7781h2.235v-3.9505h3.252v3.9505h3.764v2.7882h-3.761v7.8203c0 .9036.165 1.5251.496 1.8711.33.346.909.5173 1.742.5173z"/><path d="m128.712 28.9434c.412-.3768.954-.5725 1.507-.5442.555-.0247 1.097.1704 1.514.5442.188.1746.337.3882.437.6264.099.2382.148.4954.141.7542.008.2536-.039.5059-.14.7384-.1.2325-.25.4393-.438.6053-.423.3608-.963.5478-1.514.5241-.547.0274-1.083-.1575-1.5-.5174-.186-.1683-.332-.3759-.43-.6081-.097-.2321-.144-.4832-.136-.7356-.008-.2582.037-.5153.134-.7544.096-.2391.241-.4548.425-.6329zm3.113 5.9929v15.8421h-3.225v-15.8421z"/><path d="m146.367 35.7012c1.192.6402 2.175 1.6195 2.829 2.8184.669 1.3409 1.018 2.8232 1.018 4.3267s-.349 2.9859-1.018 4.3267c-.652 1.2002-1.636 2.18-2.829 2.8184-1.263.6429-2.655.9776-4.067.9776s-2.805-.3347-4.067-.9776c-1.193-.6455-2.176-1.6293-2.829-2.8318-.679-1.3354-1.034-2.8167-1.034-4.32s.355-2.9846 1.034-4.32c.657-1.1965 1.639-2.1751 2.829-2.8184 1.262-.6428 2.655-.9776 4.067-.9776s2.804.3348 4.067.9776zm-6.366 2.4422c-.72.4093-1.307 1.0249-1.685 1.7703-.418.9169-.635 1.9153-.635 2.9259 0 1.0105.217 2.009.635 2.9259.381.7394.967 1.3491 1.685 1.7535.707.3773 1.494.5743 2.292.5743.799 0 1.585-.197 2.292-.5743.718-.4037 1.304-1.0136 1.683-1.7535.42-.9163.637-1.915.637-2.9259s-.217-2.0096-.637-2.9259c-.377-.7459-.962-1.3618-1.683-1.7703-.707-.3773-1.493-.5743-2.292-.5743-.798 0-1.585.197-2.292.5743z"/><path d="m165.831 36.4478c1.102 1.1891 1.653 2.8867 1.653 5.0926v9.2278h-3.223v-8.8852c0-1.4176-.358-2.5149-1.074-3.292-.382-.3952-.841-.7034-1.349-.9044-.508-.2009-1.052-.29-1.596-.2613-.572-.025-1.142.0738-1.674.2898-.531.216-1.012.5443-1.409.9632-.774.8331-1.16 2.0547-1.16 3.6649v8.425h-3.239v-15.8321h3.239v3.4802c.373-1.1336 1.111-2.1063 2.095-2.7613 1.011-.6611 2.193-1.0014 3.394-.9776 1.803-.0067 3.25.5834 4.343 1.7704z"/><path d="m180.19 36.1494c1.117.9768 1.838 2.3402 2.022 3.8262h-3.057c-.102-.8062-.488-1.5473-1.087-2.0861-.665-.5509-1.507-.8321-2.363-.7894-.677-.0449-1.346.1643-1.881.5879-.22.1993-.393.4459-.507.722-.115.276-.167.5744-.154.8736-.009.2249.03.449.113.6576.083.2085.209.3966.37.5517.347.3218.757.5666 1.203.7189.673.2263 1.357.418 2.049.5744.967.209 1.918.4874 2.846.8331.725.2897 1.367.7598 1.867 1.3672.55.7258.826 1.6281.777 2.543.016.6172-.11 1.2298-.368 1.7891-.257.5592-.64 1.0497-1.116 1.4324-.992.8264-2.327 1.2384-4.006 1.2362-1.943 0-3.513-.4602-4.71-1.3807-.596-.4618-1.095-1.041-1.467-1.7029s-.609-1.3931-.698-2.1501h3.14c.039.41.159.8077.354 1.1687s.46.6778.78.9308c.749.567 1.668.852 2.601.8062.663.0391 1.317-.1821 1.824-.6181.216-.1973.386-.4397.5-.7105.114-.2709.169-.5637.161-.8582.012-.2441-.028-.4878-.116-.7153-.087-.2275-.221-.4336-.393-.6049-.367-.3426-.802-.6024-1.275-.7626-.686-.23-1.385-.4173-2.092-.561-.936-.2102-1.858-.4795-2.76-.8062-.705-.2685-1.329-.7188-1.811-1.3067-.531-.7022-.796-1.5748-.747-2.459-.019-.6239.106-1.2435.364-1.8101.257-.5666.64-1.0647 1.12-1.4551.991-.8331 2.363-1.2496 4.114-1.2496 1.831-.0112 3.299.458 4.403 1.4075z"/></g><path d="m0 1.97803v39.11497c1.77811-1.0917 3.5397-2.2137 5.28806-3.3592 1.81694-1.2229 3.92727-1.9197 6.10444-2.0156 2.2562-.0694 4.562-.0884 6.9174-.0571 3.586.0471 7.205-1.4512 9.2012-4.367 1.5424-2.2395 3.0021-4.5786 4.3792-7.0174.7436-1.3101 2.8093-3.3895 4.0255-4.2394 6.6465-4.6223 6.9406-4.4241 11.6933-7.6423v-10.41361z" fill="#0cf"/><path d="m35.1986 27.6596c-.1916.383-.3866.7962-.5816 1.2262-.585 1.2597-1.0709 2.422-1.3716 3.1644-1.0345 2.4287-2.0921 4.8238-3.1729 5.9693-2.3928 2.5396-6.2795 4.5585-9.9151 3.9942-2.7189-.4188-5.385-.7693-7.9982-1.0515-1.5075-.1474-3.02887-.0119-4.48821.3998-.66757.1864-1.32048.4233-1.95328.7088-1.85082.823-3.84706 1.6259-5.71771 2.4018v5.9157h47.6091v-34.6002s-7.6016 5.4184-9.7301 7.5852c-.8626.8431-1.8277 2.553-2.6804 4.2863z" fill="#0cf"/></svg>