<?xml version="1.0" encoding="utf-8"?>
<!-- Generator: Adobe Illustrator 15.0.0, SVG Export Plug-In . SVG Version: 6.00 Build 0)  -->
<!DOCTYPE svg PUBLIC "-//W3C//DTD SVG 1.1//EN" "http://www.w3.org/Graphics/SVG/1.1/DTD/svg11.dtd">
<svg version="1.1" id="Layer_1" xmlns="http://www.w3.org/2000/svg" xmlns:xlink="http://www.w3.org/1999/xlink" x="0px" y="0px"
	 width="64px" height="64px" viewBox="0 0 64 64" style="enable-background:new 0 0 64 64;" xml:space="preserve">
<style type="text/css">
<![CDATA[
	.st0{fill:#EFE6FF;}
	.st1{fill:url(#SVGID_1_);}
]]>
</style>
<g id="centralized">
	<linearGradient id="SVGID_1_" gradientUnits="userSpaceOnUse" x1="13.876" y1="13.876" x2="50.1249" y2="50.1249">
		<stop  offset="0" style="stop-color:#E68CBC"/>
		<stop  offset="1" style="stop-color:#8366B3"/>
	</linearGradient>
	<polygon class="st1" points="50,34 50,30 39.465,30 55.517,20.732 53.518,17.269 37.464,26.537 42.732,17.412 39.268,15.412 
		34,24.536 34,6 30,6 30,24.536 24.732,15.412 21.268,17.413 26.536,26.536 10.483,17.268 8.483,20.732 24.535,30 14,30 14,34 
		24.537,34 8.483,43.269 10.483,46.732 26.536,37.465 21.268,46.589 24.732,48.589 30,39.464 30,58 34,58 34,39.465 39.268,48.589 
		42.732,46.589 37.465,37.465 53.517,46.732 55.517,43.269 39.463,34 	"/>
	<path class="st0" d="M50,36c-2.209,0-4-1.791-4-4s1.791-4,4-4s4,1.791,4,4S52.209,36,50,36z M36,6c0,2.209-1.791,4-4,4
		s-4-1.791-4-4s1.791-4,4-4S36,3.791,36,6z M36,58c0,2.209-1.791,4-4,4s-4-1.791-4-4s1.791-4,4-4S36,55.791,36,58z M18,32
		c0-2.209-1.791-4-4-4s-4,1.791-4,4s1.791,4,4,4S18,34.209,18,32z M44.464,18.412c-1.104,1.913-3.552,2.568-5.464,1.464
		c-1.914-1.104-2.568-3.551-1.465-5.464c1.105-1.913,3.551-2.569,5.465-1.464C44.912,14.052,45.568,16.499,44.464,18.412z
		 M11.483,15.536c1.913,1.104,2.569,3.551,1.464,5.464s-3.551,2.568-5.464,1.464S4.915,18.914,6.02,17S9.57,14.432,11.483,15.536z
		 M56.517,41.536c1.913,1.104,2.568,3.551,1.464,5.464s-3.551,2.569-5.464,1.465S49.948,44.913,51.053,43
		S54.604,40.432,56.517,41.536z M25,44.124c-1.913-1.104-4.36-0.448-5.465,1.464c-1.104,1.913-0.448,4.36,1.465,5.465
		s4.359,0.448,5.464-1.465C27.568,47.676,26.913,45.229,25,44.124z M26.464,14.412c1.104,1.913,0.448,4.36-1.465,5.464
		s-4.359,0.449-5.464-1.464s-0.449-4.359,1.464-5.464S25.359,12.499,26.464,14.412z M7.483,41.536
		c1.913-1.104,4.36-0.449,5.465,1.464s0.448,4.36-1.465,5.465C9.571,49.569,7.125,48.913,6.02,47S5.57,42.641,7.483,41.536z
		 M52.517,15.536c1.913-1.104,4.359-0.449,5.464,1.464s0.45,4.36-1.463,5.464s-4.36,0.448-5.465-1.465S50.604,16.641,52.517,15.536z
		 M39,44.124c-1.914,1.104-2.568,3.552-1.465,5.465s3.552,2.568,5.465,1.464s2.568-3.552,1.463-5.465
		C43.359,43.676,40.912,43.02,39,44.124z M38,32c0,3.313-2.687,6-6,6s-6-2.687-6-6s2.687-6,6-6S38,28.687,38,32z"/>
</g>
</svg>
